<?xml version="1.0" encoding="UTF-8"?><svg id="Layer_1" xmlns="http://www.w3.org/2000/svg" viewBox="0 0 111.982 84.733"><path d="M111.407,64.436l-11.899-5.732c-.526-.254-1.141.003-1.366.542-1.31,3.15-3.398,5.796-6.262,7.937-3.167,2.367-7.017,3.55-11.55,3.55-4.4,0-8.267-1.033-11.6-3.101-3.334-2.065-5.917-4.933-7.75-8.6-1.834-3.666-2.75-7.933-2.75-12.8s.916-9.116,2.75-12.75c1.833-3.633,4.416-6.483,7.75-8.55,3.333-2.066,7.2-3.101,11.6-3.101,4.533,0,8.383,1.185,11.55,3.55,2.864,2.141,4.951,4.787,6.262,7.937.224.539.84.796,1.366.542l11.899-5.732c.466-.225.696-.773.509-1.255-1.293-3.33-3.321-6.378-6.085-9.142-3-3-6.65-5.4-10.95-7.2-4.3-1.8-9.15-2.7-14.55-2.7-4.767,0-9.21.743-13.327,2.224l-19.192,56.07c1.585,2.792,3.487,5.332,5.719,7.606,3.4,3.467,7.383,6.167,11.95,8.1,4.566,1.933,9.516,2.9,14.85,2.9,5.4,0,10.25-.9,14.55-2.7,4.3-1.8,7.95-4.2,10.95-7.2,2.764-2.764,4.792-5.811,6.085-9.142.187-.483-.042-1.03-.509-1.255Z" fill="#fff"/><path d="M67.202,0h-14.872c-.435,0-.819.281-.952.694l-16.325,50.845c-.297.926-1.607.926-1.904,0L16.824.694c-.133-.414-.518-.694-.952-.694H1.001C.315,0-.167.675.055,1.324l25.047,73.176h0c2.85.859,5.864,1.3,9.05,1.3s6.194-.441,9.032-1.3h-.082L68.148,1.324c.222-.649-.26-1.324-.946-1.324Z" fill="#fff"/></svg>